HIERARCHY
ROOT Pelvis
{
	OFFSET 0.000000 0.941512 0.000000
	CHANNELS 6 Xposition Yposition Zposition Zrotation Yrotation Xrotation 
	JOINT Pelvis_L_Hip
	{
		OFFSET 0.000000 0.000000 0.000000
		CHANNELS 3 Zrotation Yrotation Xrotation
		JOINT L_Hip
		{
			OFFSET 0.062321 -0.080322 -0.016990
			CHANNELS 3 Zrotation Yrotation Xrotation
			JOINT L_Knee
			{
				OFFSET 0.093051 -0.381305 -0.029784
				CHANNELS 3 Zrotation Yrotation Xrotation
				JOINT L_Ankle
				{
					OFFSET -0.010371 -0.431000 -0.033614
					CHANNELS 3 Zrotation Yrotation Xrotation
					End Site #name: L_Foot
					{
						OFFSET 0.069299 -0.038670 0.119418
					}
				}
			}
		}
	}
	JOINT Pelvis_R_Hip
	{
		OFFSET 0.000000 0.000000 0.000000
		CHANNELS 3 Zrotation Yrotation Xrotation
		JOINT R_Hip
		{
			OFFSET -0.055334 -0.094904 -0.002373
			CHANNELS 3 Zrotation Yrotation Xrotation
			JOINT R_Knee
			{
				OFFSET -0.064207 -0.384370 -0.019592
				CHANNELS 3 Zrotation Yrotation Xrotation
				JOINT R_Ankle
				{
					OFFSET 0.025418 -0.419734 -0.065953
					CHANNELS 3 Zrotation Yrotation Xrotation
					End Site #name: R_Foot
					{
						OFFSET -0.057233 -0.039888 0.132134
					}
				}
			}
		}
	}
	JOINT Pelvis_Spine1
	{
		OFFSET 0.000000 0.000000 0.000000
		CHANNELS 3 Zrotation Yrotation Xrotation
		JOINT Spine1
		{
			OFFSET -0.005562 0.124093 -0.043360
			CHANNELS 3 Zrotation Yrotation Xrotation
			JOINT Spine2
			{
				OFFSET 0.012244 0.139499 0.029894
				CHANNELS 3 Zrotation Yrotation Xrotation
				JOINT Spine3
				{
					OFFSET -0.002556 0.056561 0.009225
					CHANNELS 3 Zrotation Yrotation Xrotation
					JOINT Spine3_Neck
					{
						OFFSET 0.000000 0.000000 0.000000
						CHANNELS 3 Zrotation Yrotation Xrotation
						JOINT Neck
						{
							OFFSET -0.005205 0.217920 -0.024551
							CHANNELS 3 Zrotation Yrotation Xrotation
							End Site #name: Head
							{
								OFFSET 0.002365 0.091850 0.046637
							}
						}
					}
					JOINT Spine3_L_Collar
					{
						OFFSET 0.000000 0.000000 0.000000
						CHANNELS 3 Zrotation Yrotation Xrotation
						JOINT L_Collar
						{
							OFFSET 0.072225 0.116603 -0.009480
							CHANNELS 3 Zrotation Yrotation Xrotation
							JOINT L_Shoulder
							{
								OFFSET 0.115937 -0.058643 -0.021018
								CHANNELS 3 Zrotation Yrotation Xrotation
								JOINT L_Elbow
								{
									OFFSET 0.021994 -0.254722 -0.024492
									CHANNELS 3 Zrotation Yrotation Xrotation
									End Site #name: L_Wrist
									{
										OFFSET 0.048810 -0.240214 0.103329
									}
								}
							}
						}
					}
					JOINT Spine3_R_Collar
					{
						OFFSET 0.000000 0.000000 0.000000
						CHANNELS 3 Zrotation Yrotation Xrotation
						JOINT R_Collar
						{
							OFFSET -0.073372 0.120704 -0.024611
							CHANNELS 3 Zrotation Yrotation Xrotation
							JOINT R_Shoulder
							{
								OFFSET -0.108089 -0.054969 -0.020504
								CHANNELS 3 Zrotation Yrotation Xrotation
								JOINT R_Elbow
								{
									OFFSET -0.033684 -0.260739 0.009889
									CHANNELS 3 Zrotation Yrotation Xrotation
									End Site #name: R_Wrist
									{
										OFFSET -0.067980 -0.232763 0.118463
									}
								}
							}
						}
					}
				}
			}
		}
	}
}
MOTION
Frames: 10
Frame Time: 0.041667
0.001718 0.685027 -0.005002 -2.142126 -5.755569 -22.502578 0.000000 0.000000 0.000000 10.501598 -6.917811 -43.093891 -7.794605 4.195828 63.095912 5.786401 2.103743 -9.277024 0.000000 0.000000 0.000000 -9.214228 4.659403 -42.485382 15.952973 -6.284040 57.995384 -4.025553 -9.370724 -2.932999 0.000000 0.000000 0.000000 2.232961 -1.933814 16.311242 -5.278014 6.361206 46.185003 4.310540 5.437811 -44.714397 0.000000 0.000000 0.000000 -4.432940 2.195606 23.236428 0.000000 0.000000 0.000000 14.600488 -11.451271 -5.225351 -7.799799 0.982544 4.612598 -13.259183 -24.299352 -39.041216 0.000000 0.000000 0.000000 -12.629877 13.344373 -6.495781 8.881415 -1.838688 12.692104 7.949702 26.433267 -41.009388 
0.001614 0.685049 -0.004529 -2.132518 -5.753869 -22.466901 0.000000 0.000000 0.000000 10.572347 -6.894435 -43.110107 -7.907549 4.275701 63.087228 5.807218 2.129027 -9.302753 0.000000 0.000000 0.000000 -9.296343 4.632514 -42.502132 16.070897 -6.369017 57.975605 -4.039201 -9.392969 -2.952217 0.000000 0.000000 0.000000 2.248565 -1.928137 16.196144 -5.274860 6.371992 46.259630 4.265035 5.407420 -44.781033 0.000000 0.000000 0.000000 -4.465795 2.219442 23.291828 0.000000 0.000000 0.000000 14.607656 -11.463251 -5.234140 -7.787580 0.983571 4.628691 -13.250105 -24.263049 -38.989685 0.000000 0.000000 0.000000 -12.605179 13.359949 -6.506059 8.887447 -1.843051 12.716464 7.941402 26.367834 -40.929148 
0.001539 0.685110 -0.003901 -2.135152 -5.749654 -22.459386 0.000000 0.000000 0.000000 10.595618 -6.885568 -43.102770 -7.949574 4.307852 63.133456 5.829206 2.130967 -9.342527 0.000000 0.000000 0.000000 -9.321205 4.620837 -42.486584 16.120976 -6.409374 58.006865 -4.056961 -9.402300 -2.993823 0.000000 0.000000 0.000000 2.245953 -1.909986 16.010062 -5.286716 6.399927 46.381942 4.231219 5.394588 -44.865050 0.000000 0.000000 0.000000 -4.427632 2.196135 23.518073 0.000000 0.000000 0.000000 14.536984 -11.435497 -5.220633 -7.705398 0.973299 4.605054 -13.295291 -24.247528 -38.871695 0.000000 0.000000 0.000000 -12.569701 13.372071 -6.515146 8.841430 -1.842653 12.720720 8.031241 26.341035 -40.734893 
0.001564 0.685102 -0.003552 -2.145677 -5.744804 -22.454436 0.000000 0.000000 0.000000 10.566655 -6.899383 -43.118663 -7.905914 4.282077 63.207617 5.847726 2.131223 -9.377279 0.000000 0.000000 0.000000 -9.303750 4.626552 -42.488835 16.106149 -6.404794 58.057928 -4.070036 -9.403978 -3.029029 0.000000 0.000000 0.000000 2.221536 -1.890393 15.880720 -5.292600 6.434179 46.572792 4.225682 5.400417 -44.983988 0.000000 0.000000 0.000000 -4.437520 2.204944 23.726111 0.000000 0.000000 0.000000 14.440987 -11.423910 -5.219902 -7.615416 0.965664 4.603388 -13.281340 -24.251583 -38.882503 0.000000 0.000000 0.000000 -12.546015 13.394792 -6.530856 8.803936 -1.840751 12.719372 8.049964 26.317738 -40.661239 
0.001752 0.685016 -0.003726 -2.158615 -5.742161 -22.444848 0.000000 0.000000 0.000000 10.502154 -6.930063 -43.163301 -7.805890 4.216459 63.270072 5.858205 2.141840 -9.391896 0.000000 0.000000 0.000000 -9.265165 4.643927 -42.519779 16.044537 -6.365223 58.092579 -4.072151 -9.401863 -3.037029 0.000000 0.000000 0.000000 2.185265 -1.881409 15.904898 -5.266372 6.460959 46.853031 4.248227 5.410834 -45.150607 0.000000 0.000000 0.000000 -4.522730 2.266234 23.911250 0.000000 0.000000 0.000000 14.371869 -11.459686 -5.250276 -7.560895 0.967536 4.649495 -13.152340 -24.273943 -39.118352 0.000000 0.000000 0.000000 -12.576105 13.427510 -6.550638 8.821477 -1.834748 12.699063 7.912444 26.292827 -40.840243 
0.002068 0.684917 -0.004291 -2.168782 -5.743328 -22.413537 0.000000 0.000000 0.000000 10.456080 -6.956878 -43.231577 -7.733629 4.168322 63.281793 5.858044 2.161413 -9.382312 0.000000 0.000000 0.000000 -9.243589 4.660003 -42.579650 15.989846 -6.326617 58.081374 -4.064047 -9.401711 -3.014681 0.000000 0.000000 0.000000 2.162997 -1.891366 16.084068 -5.210956 6.466333 47.126595 4.273412 5.411434 -45.319924 0.000000 0.000000 0.000000 -4.617641 2.331816 23.928417 0.000000 0.000000 0.000000 14.366614 -11.518665 -5.292602 -7.564201 0.977805 4.724873 -12.955120 -24.306815 -39.493955 0.000000 0.000000 0.000000 -12.642056 13.440843 -6.556222 8.884656 -1.824821 12.658866 7.665258 26.267431 -41.202476 
0.002314 0.684851 -0.004738 -2.171055 -5.745696 -22.357266 0.000000 0.000000 0.000000 10.478131 -6.958519 -43.300186 -7.763174 4.187910 63.222756 5.843360 2.184992 -9.343856 0.000000 0.000000 0.000000 -9.273369 4.659543 -42.648655 15.993471 -6.325946 58.022307 -4.049279 -9.405189 -2.970762 0.000000 0.000000 0.000000 2.182026 -1.916071 16.279339 -5.157682 6.450452 47.260189 4.269127 5.391243 -45.424336 0.000000 0.000000 0.000000 -4.660848 2.358172 23.761219 0.000000 0.000000 0.000000 14.420871 -11.586165 -5.336554 -7.612299 0.994952 4.820998 -12.804943 -24.325957 -39.777091 0.000000 0.000000 0.000000 -12.688073 13.435117 -6.550021 8.966884 -1.820751 12.642948 7.454163 26.232183 -41.500934 
0.002392 0.684915 -0.004651 -2.164328 -5.744084 -22.307485 0.000000 0.000000 0.000000 10.538419 -6.940241 -43.326925 -7.863396 4.255749 63.160948 5.842924 2.208354 -9.330750 0.000000 0.000000 0.000000 -9.325859 4.645787 -42.683069 16.041049 -6.358378 57.981519 -4.045515 -9.410941 -2.955385 0.000000 0.000000 0.000000 2.212954 -1.930726 16.326354 -5.124955 6.429196 47.267206 4.239093 5.356683 -45.449377 0.000000 0.000000 0.000000 -4.648506 2.348020 23.638144 0.000000 0.000000 0.000000 14.476057 -11.644007 -5.373433 -7.644254 1.009269 4.897967 -12.759218 -24.312193 -39.834916 0.000000 0.000000 0.000000 -12.681514 13.434073 -6.548489 9.002346 -1.821713 12.647879 7.401506 26.197599 -41.541202 
0.002299 0.685013 -0.004056 -2.148254 -5.736886 -22.274473 0.000000 0.000000 0.000000 10.636656 -6.903275 -43.315943 -8.044086 4.378858 63.103788 5.867600 2.253625 -9.353861 0.000000 0.000000 0.000000 -9.393553 4.622226 -42.691704 16.122047 -6.418169 57.982082 -4.057477 -9.417964 -2.982779 0.000000 0.000000 0.000000 2.239152 -1.928686 16.211957 -5.099714 6.406116 47.223858 4.180736 5.296663 -45.448069 0.000000 0.000000 0.000000 -4.601577 2.316516 23.555255 0.000000 0.000000 0.000000 14.490114 -11.668380 -5.391323 -7.624528 1.017328 4.956719 -12.778245 -24.272314 -39.733398 0.000000 0.000000 0.000000 -12.623976 13.418321 -6.538480 8.986378 -1.815907 12.620837 7.486898 26.158636 -41.345122 
0.002075 0.685227 -0.003201 -2.127296 -5.731773 -22.277527 0.000000 0.000000 0.000000 10.691268 -6.874254 -43.254366 -8.172904 4.469838 63.106400 5.912473 2.269888 -9.428914 0.000000 0.000000 0.000000 -9.406974 4.613253 -42.661305 16.164402 -6.454540 58.059361 -4.090527 -9.424721 -3.069189 0.000000 0.000000 0.000000 2.216761 -1.901639 16.002693 -5.095433 6.401312 47.191239 4.155949 5.267006 -45.434724 0.000000 0.000000 0.000000 -4.555573 2.285967 23.499541 0.000000 0.000000 0.000000 14.409237 -11.628123 -5.370973 -7.554785 1.012365 4.952943 -12.846505 -24.209973 -39.507267 0.000000 0.000000 0.000000 -12.522337 13.409097 -6.534683 8.885666 -1.804765 12.569783 7.696757 26.134527 -40.958331 
